<svg width="80" height="45" viewBox="0 0 80 45" fill="none" xmlns="http://www.w3.org/2000/svg">
<rect y="3" width="80" height="37" rx="18.5" fill="black"/>
<g filter="url(#filter0_d_3_1887)">
<path fill-rule="evenodd" clip-rule="evenodd" d="M19.3035 10.8126C17.4561 13.5054 16.9212 17.032 18.1799 20.3112L18.3941 20.8691C20.4268 26.1645 26.3674 28.8094 31.6629 26.7767C32.0985 26.6095 32.5162 26.4158 32.9148 26.1982C31.779 27.854 30.147 29.1944 28.1307 29.9684C22.8353 32.0011 16.8947 29.3562 14.862 24.0608L14.6478 23.5029C12.7823 18.6431 14.8565 13.2399 19.3035 10.8126Z" fill="#FFD914"/>
<path d="M25 16L25.6735 18.0729L27.8532 18.0729L26.0898 19.3541L26.7634 21.4271L25 20.1459L23.2366 21.4271L23.9102 19.3541L22.1468 18.0729L24.3265 18.0729L25 16Z" fill="#FFD914"/>
</g>
<rect x="52.4688" y="13.4688" width="14.0625" height="14.0625" rx="7.03125" fill="#F9FE1F"/>
<line x1="60" y1="8.5" x2="60" y2="12.1875" stroke="white" stroke-linecap="round"/>
<line x1="60" y1="28.8125" x2="60" y2="32.5" stroke="white" stroke-linecap="round"/>
<line x1="47.5" y1="20.7812" x2="51.1875" y2="20.7812" stroke="white" stroke-linecap="round"/>
<line x1="67.8125" y1="20" x2="71.5" y2="20" stroke="white" stroke-linecap="round"/>
<line x1="65.75" y1="14.5136" x2="68.3575" y2="11.9061" stroke="white" stroke-linecap="round"/>
<line x1="50.0509" y1="11.9062" x2="52.6583" y2="14.5137" stroke="white" stroke-linecap="round"/>
<line x1="50.125" y1="28.5761" x2="52.7325" y2="25.9686" stroke="white" stroke-linecap="round"/>
<line x1="67.2384" y1="25.9688" x2="69.8458" y2="28.5762" stroke="white" stroke-linecap="round"/>
<rect x="46" y="7" width="28" height="28" rx="14" fill="#888888"/>
<defs>
<filter id="filter0_d_3_1887" x="3.96289" y="0.8125" width="42.9521" height="43.8408" filterUnits="userSpaceOnUse" color-interpolation-filters="sRGB">
<feFlood flood-opacity="0" result="BackgroundImageFix"/>
<feColorMatrix in="SourceAlpha" type="matrix" values="0 0 0 0 0 0 0 0 0 0 0 0 0 0 0 0 0 0 127 0" result="hardAlpha"/>
<feOffset dx="2" dy="2"/>
<feGaussianBlur stdDeviation="6"/>
<feComposite in2="hardAlpha" operator="out"/>
<feColorMatrix type="matrix" values="0 0 0 0 1 0 0 0 0 1 0 0 0 0 1 0 0 0 0.25 0"/>
<feBlend mode="normal" in2="BackgroundImageFix" result="effect1_dropShadow_3_1887"/>
<feBlend mode="normal" in="SourceGraphic" in2="effect1_dropShadow_3_1887" result="shape"/>
</filter>
</defs>
</svg>
