<svg width="104" height="61" viewBox="0 0 104 61" fill="none" xmlns="http://www.w3.org/2000/svg">
<g filter="url(#filter0_d_3_2312)">
<rect x="12" y="8" width="80" height="37" rx="18.5" fill="white"/>
</g>
<g filter="url(#filter1_d_3_2312)">
<path fill-rule="evenodd" clip-rule="evenodd" d="M31.3035 15.8126C29.4561 18.5054 28.9212 22.032 30.1799 25.3112L30.3941 25.8691C32.4268 31.1645 38.3674 33.8094 43.6629 31.7767C44.0985 31.6095 44.5162 31.4158 44.9148 31.1982C43.779 32.854 42.147 34.1944 40.1307 34.9684C34.8353 37.0011 28.8947 34.3562 26.862 29.0608L26.6478 28.5029C24.7823 23.6431 26.8565 18.2399 31.3035 15.8126Z" fill="#FFD914"/>
<path d="M37 21L37.6735 23.0729L39.8532 23.0729L38.0898 24.3541L38.7634 26.4271L37 25.1459L35.2366 26.4271L35.9102 24.3541L34.1468 23.0729L36.3265 23.0729L37 21Z" fill="#FFD914"/>
</g>
<rect x="61.6875" y="18.6875" width="14.625" height="14.625" rx="7.3125" fill="#F9FE1F"/>
<line x1="69.5" y1="13.5" x2="69.5" y2="17.375" stroke="#B9B9B9" stroke-linecap="round"/>
<line x1="69.5" y1="34.625" x2="69.5" y2="38.5" stroke="#B9B9B9" stroke-linecap="round"/>
<line x1="56.5" y1="26.3125" x2="60.375" y2="26.3125" stroke="#B9B9B9" stroke-linecap="round"/>
<line x1="77.625" y1="25.5" x2="81.5" y2="25.5" stroke="#B9B9B9" stroke-linecap="round"/>
<line x1="75.5" y1="19.8024" x2="78.24" y2="17.0624" stroke="#B9B9B9" stroke-linecap="round"/>
<line x1="59.1446" y1="17.0625" x2="61.8846" y2="19.8025" stroke="#B9B9B9" stroke-linecap="round"/>
<line x1="59.25" y1="34.4274" x2="61.99" y2="31.6874" stroke="#B9B9B9" stroke-linecap="round"/>
<line x1="77.0196" y1="31.6875" x2="79.7596" y2="34.4275" stroke="#B9B9B9" stroke-linecap="round"/>
<rect x="22" y="12" width="28" height="28" rx="14" fill="#888888"/>
<defs>
<filter id="filter0_d_3_2312" x="0" y="0" width="104" height="61" filterUnits="userSpaceOnUse" color-interpolation-filters="sRGB">
<feFlood flood-opacity="0" result="BackgroundImageFix"/>
<feColorMatrix in="SourceAlpha" type="matrix" values="0 0 0 0 0 0 0 0 0 0 0 0 0 0 0 0 0 0 127 0" result="hardAlpha"/>
<feOffset dy="4"/>
<feGaussianBlur stdDeviation="6"/>
<feComposite in2="hardAlpha" operator="out"/>
<feColorMatrix type="matrix" values="0 0 0 0 0 0 0 0 0 0 0 0 0 0 0 0 0 0 0.25 0"/>
<feBlend mode="normal" in2="BackgroundImageFix" result="effect1_dropShadow_3_2312"/>
<feBlend mode="normal" in="SourceGraphic" in2="effect1_dropShadow_3_2312" result="shape"/>
</filter>
<filter id="filter1_d_3_2312" x="19.9629" y="9.8125" width="34.9521" height="35.8408" filterUnits="userSpaceOnUse" color-interpolation-filters="sRGB">
<feFlood flood-opacity="0" result="BackgroundImageFix"/>
<feColorMatrix in="SourceAlpha" type="matrix" values="0 0 0 0 0 0 0 0 0 0 0 0 0 0 0 0 0 0 127 0" result="hardAlpha"/>
<feOffset dx="2" dy="2"/>
<feGaussianBlur stdDeviation="4"/>
<feComposite in2="hardAlpha" operator="out"/>
<feColorMatrix type="matrix" values="0 0 0 0 0 0 0 0 0 0 0 0 0 0 0 0 0 0 0.25 0"/>
<feBlend mode="normal" in2="BackgroundImageFix" result="effect1_dropShadow_3_2312"/>
<feBlend mode="normal" in="SourceGraphic" in2="effect1_dropShadow_3_2312" result="shape"/>
</filter>
</defs>
</svg>
