<svg width="200" height="200" viewBox="0 0 200 200" fill="none" xmlns="http://www.w3.org/2000/svg">
<g filter="url(#filter0_d_3_2027)">
<circle cx="92" cy="90" r="83" fill="#370665"/>
</g>
<path d="M72.776 130.576C80.456 130.576 85.064 125.008 85.064 118.384C85.064 111.808 80.456 106.24 72.776 106.24C65.144 106.24 60.536 111.808 60.536 118.384C60.536 125.008 65.144 130.576 72.776 130.576ZM72.776 125.152C68.984 125.152 66.872 122.032 66.872 118.384C66.872 114.784 68.984 111.664 72.776 111.664C76.568 111.664 78.728 114.784 78.728 118.384C78.728 122.032 76.568 125.152 72.776 125.152ZM98.0345 130V112.144H102.738V106.816H98.0345V105.568C98.0345 103.408 99.2345 102.304 100.914 102.304C102.018 102.304 102.834 102.64 103.458 103.264L105.763 99.664C104.274 98.08 101.922 97.504 99.7145 97.504C95.0585 97.504 91.8905 100.624 91.8905 105.568V106.816H88.0505V112.144H91.8905V130H98.0345ZM113.73 130V112.144H118.435V106.816H113.73V105.568C113.73 103.408 114.931 102.304 116.61 102.304C117.714 102.304 118.531 102.64 119.155 103.264L121.458 99.664C119.971 98.08 117.619 97.504 115.411 97.504C110.755 97.504 107.586 100.624 107.586 105.568V106.816H103.747V112.144H107.586V130H113.73Z" fill="white"/>
<path d="M70.352 80V74H57.296C65.6 67.952 70.112 63.2 70.112 57.728C70.112 51.344 64.688 47.504 57.872 47.504C53.408 47.504 48.656 49.136 45.536 52.736L49.424 57.248C51.584 54.992 54.368 53.552 58.016 53.552C60.656 53.552 63.2 54.944 63.2 57.728C63.2 61.664 59.36 64.976 46.256 74.672V80H70.352ZM88.6212 80.576C97.7412 80.576 101.869 72.272 101.869 64.016C101.869 55.76 97.7412 47.504 88.6212 47.504C79.4532 47.504 75.3732 55.76 75.3732 64.016C75.3732 72.272 79.4532 80.576 88.6212 80.576ZM88.6212 74.528C84.0132 74.528 82.2852 69.92 82.2852 64.016C82.2852 58.112 84.0132 53.552 88.6212 53.552C93.1813 53.552 94.9092 58.112 94.9092 64.016C94.9092 69.92 93.1813 74.528 88.6212 74.528ZM113.827 63.44C118.771 63.44 121.987 60.032 121.987 55.568C121.987 51.056 118.771 47.504 113.827 47.504C108.931 47.504 105.715 51.056 105.715 55.568C105.715 60.032 108.931 63.44 113.827 63.44ZM114.307 80L134.803 47.984H131.155L110.707 80H114.307ZM131.443 80.576C136.339 80.576 139.603 77.12 139.603 72.656C139.603 68.144 136.339 64.592 131.443 64.592C126.547 64.592 123.331 68.144 123.331 72.656C123.331 77.12 126.547 80.576 131.443 80.576ZM113.827 59.696C111.667 59.696 110.035 58.064 110.035 55.568C110.035 52.88 111.667 51.296 113.827 51.296C116.035 51.296 117.619 52.88 117.619 55.568C117.619 58.064 116.035 59.696 113.827 59.696ZM131.443 76.832C129.235 76.832 127.651 75.248 127.651 72.656C127.651 70.016 129.235 68.384 131.443 68.384C133.651 68.384 135.283 70.016 135.283 72.656C135.283 75.248 133.651 76.832 131.443 76.832Z" fill="white"/>
<defs>
<filter id="filter0_d_3_2027" x="0" y="0" width="200" height="200" filterUnits="userSpaceOnUse" color-interpolation-filters="sRGB">
<feFlood flood-opacity="0" result="BackgroundImageFix"/>
<feColorMatrix in="SourceAlpha" type="matrix" values="0 0 0 0 0 0 0 0 0 0 0 0 0 0 0 0 0 0 127 0" result="hardAlpha"/>
<feOffset dx="8" dy="10"/>
<feGaussianBlur stdDeviation="8.5"/>
<feComposite in2="hardAlpha" operator="out"/>
<feColorMatrix type="matrix" values="0 0 0 0 0 0 0 0 0 0 0 0 0 0 0 0 0 0 0.25 0"/>
<feBlend mode="normal" in2="BackgroundImageFix" result="effect1_dropShadow_3_2027"/>
<feBlend mode="normal" in="SourceGraphic" in2="effect1_dropShadow_3_2027" result="shape"/>
</filter>
</defs>
</svg>
